<?xml version="1.0" standalone="no"?>
<!DOCTYPE svg PUBLIC "-//W3C//DTD SVG 20010904//EN"
 "http://www.w3.org/TR/2001/REC-SVG-20010904/DTD/svg10.dtd">
<svg version="1.0" xmlns="http://www.w3.org/2000/svg"
 width="700.000000pt" height="700.000000pt" viewBox="0 0 700.000000 700.000000"
 preserveAspectRatio="xMidYMid meet">
<metadata>
Created by potrace 1.14, written by Peter Selinger 2001-2017
</metadata>
<g transform="translate(0.000000,700.000000) scale(0.100000,-0.100000)"
fill="#000000" stroke="none">
<path d="M3429 5059 c-445 -40 -820 -304 -1025 -724 -130 -267 -183 -549 -171
-915 16 -478 159 -844 440 -1122 76 -75 215 -176 306 -223 74 -37 215 -83 324
-106 132 -28 376 -30 515 -5 471 85 828 405 947 846 38 144 54 131 -156 128
l-181 -3 -28 -88 c-85 -264 -298 -457 -587 -529 -115 -29 -360 -32 -466 -5
-402 101 -670 430 -741 910 -21 138 -21 426 0 564 60 407 261 707 571 850 109
50 211 74 348 80 274 12 507 -70 681 -242 96 -95 155 -189 194 -312 l28 -88
181 -3 c210 -3 194 -16 156 128 -51 187 -153 366 -290 506 -203 207 -454 321
-774 354 -114 11 -133 11 -272 -1z"/>
</g>
</svg>
